<svg id="Layer_1" data-name="Layer 1" xmlns="http://www.w3.org/2000/svg" width="4in" height="3.9in" viewBox="0 0 287.4 277.5"><rect width="287.4" height="277.49" rx="138.7" fill="#010101"/><path d="M47.4,95H69.6v37.5h43.1V95h22.1V195.6H112.7V152.1H69.6v43.5H47.4Z" fill="#fff"/><path d="M155.3,95h33.2a95.4,95.4,0,0,1,23,2.7,51.9,51.9,0,0,1,19,8.8,42.2,42.2,0,0,1,12.8,15.7q4.8,9.6,4.8,23.4a48.6,48.6,0,0,1-4.6,21.5A48,48,0,0,1,231,182.8a55.6,55.6,0,0,1-18,9.6,72.6,72.6,0,0,1-21.5,3.2H155.3Zm22.2,80.2H189a63.6,63.6,0,0,0,14.2-1.6,30.3,30.3,0,0,0,11.5-5.2,25.6,25.6,0,0,0,7.6-9.5,34.5,34.5,0,0,0,2.8-14.4,28.9,28.9,0,0,0-2.8-12.9,27.4,27.4,0,0,0-7.5-9,30.4,30.4,0,0,0-11-5.3,48,48,0,0,0-13.3-1.8h-13Z" fill="#fff"/></svg>