<svg id="Layer_1" data-name="Layer 1" xmlns="http://www.w3.org/2000/svg" width="6.3in" height="2.5in" viewBox="0 0 450.5 182.7"><path d="M123.1,60v-.2a2.2,2.2,0,0,1,.1-1.6,1.8,1.8,0,0,1,2.2-.9h.4a28.2,28.2,0,0,1,3.8,4.7l.2.2.3.5a61.6,61.6,0,0,1,3.3,5.5,149,149,0,0,1,10.1,23.9,180.7,180.7,0,0,1,6.7,25.8,104.5,104.5,0,0,1,1.6,13.7c0,2.4,0,4.7-.2,7.1a26.9,26.9,0,0,1-1.7,7.2,10.2,10.2,0,0,1-5.7,6,8.8,8.8,0,0,1-4.2.3l-1.9-.2-1.8-.4a69.9,69.9,0,0,1-6.9-2.4l-6.6-3A169.6,169.6,0,0,1,98.3,131a183.9,183.9,0,0,1-22.4-19.1,138.8,138.8,0,0,1-19-23.4,77.3,77.3,0,0,1-7.1-13.7,56,56,0,0,1-3.9-15.1,44.8,44.8,0,0,1,.9-15.9,44.5,44.5,0,0,1,6.7-14.5A59.8,59.8,0,0,1,64.3,17.6l3.1-2.5c1-.7,2-1.6,3.2-2.3L74,10.6c1.1-.7,2.3-1.2,3.5-1.9l1.8-.9L81.1,7l3.7-1.5,3.9-1.3,1.9-.6,1.9-.5,3.9-.9,3.9-.7c2.6-.6,5.3-.7,8-1.1a122.2,122.2,0,0,1,31.9,1.7c2.6.4,5.2,1.1,7.8,1.7a27.9,27.9,0,0,1,3.9,1l3.9,1.1,7.6,2.7,3.7,1.6,1.8.8,1.9.8a112.2,112.2,0,0,1,26.9,17.8,90,90,0,0,1,19.6,25.8,88.5,88.5,0,0,1,9,31,73.4,73.4,0,0,1,.5,8.1c.1,2.7-.1,5.4-.2,8.1a58.9,58.9,0,0,1-2.6,16.1,67.3,67.3,0,0,1-16.6,27.6,86,86,0,0,1-12.2,10.4,128,128,0,0,1-13.7,8.3A157.1,157.1,0,0,1,152,176.2c-5,1.3-10.1,2.4-15.2,3.4s-10.3,1.6-15.4,2.1-10.3.8-15.4,1-10.3,0-15.4-.2-10.1-.8-15.1-1.4-10-1.6-14.9-2.7a141.8,141.8,0,0,1-14.5-4.2,97,97,0,0,1-13.7-5.8c-8.9-4.6-17.1-10.6-23.1-18.5a48.2,48.2,0,0,1-7-13A45.3,45.3,0,0,1,0,122.4,25.5,25.5,0,0,1,1.3,115a31.8,31.8,0,0,1,3.2-6.7,44.2,44.2,0,0,1,9.8-10.4c7.5-5.7,15.9-9.5,24.3-12.6A185.4,185.4,0,0,1,64,78.2a287.7,287.7,0,0,1,49.5-5.6,340.2,340.2,0,0,1,45.7,1.7c7.2.8,14.3,1.8,21,3,3.4.7,6.8,1.3,10,2.1l1.1.2,1.7.4,1.4.4s5.5,1.8,9.2,3.5c6.2,2.8,3.3,2.7-.8,1.9l-4.7-.9-5-1-1.4-.4h-1.5l-1.1-.2-2.3-.5-4.6-1a296.6,296.6,0,0,0-39.9-4.8,334.4,334.4,0,0,0-44.6.5,255.3,255.3,0,0,0-47.6,8.2,138.9,138.9,0,0,0-23.6,9.2,63.6,63.6,0,0,0-10.7,7A36.7,36.7,0,0,0,7.2,111a23.2,23.2,0,0,0-3.5,11.8,41,41,0,0,0,2.1,12.9c2.8,8.4,8.6,15.7,15.7,21.3s15.7,10,24.6,13.2a103.3,103.3,0,0,0,13.7,4.1A132,132,0,0,0,74,177.1a200.7,200.7,0,0,0,58.9-.6q7.3-1.2,14.7-3c4.9-1.2,9.7-2.7,14.4-4.3a132.2,132.2,0,0,0,27.4-13,83,83,0,0,0,22.1-20.5,59.7,59.7,0,0,0,11-27.9,100.8,100.8,0,0,0-1.4-30.5A83.6,83.6,0,0,0,209.4,49a86.9,86.9,0,0,0-21-22.2,110.5,110.5,0,0,0-26.9-14.9,123.3,123.3,0,0,0-29.9-7.3,106.7,106.7,0,0,0-30.4.5l-3.8.7-3.7.9-1.8.4-1.8.6L86.5,8.9,83,10.3l-1.7.7-1.7.8-3.3,1.8-3.1,2C64.9,21.1,57.6,28.3,53.3,37a40.1,40.1,0,0,0-3.9,13.9,46.6,46.6,0,0,0,1.2,14.4c2.3,9.4,7.1,18.1,12.6,26A152.8,152.8,0,0,0,82.4,113a198.6,198.6,0,0,0,22.2,18,154,154,0,0,0,24.1,14l6.3,2.4a24.6,24.6,0,0,0,6.2,1.3h1.9a.6.6,0,0,0,.5-.2,7.5,7.5,0,0,0,1.9-1.7,16.7,16.7,0,0,0,2-5.7c.8-4.1.6-8.6.3-13a111.6,111.6,0,0,0-2-12.9,169.5,169.5,0,0,0-7-24.9,137.5,137.5,0,0,0-10.2-22.7c-.6-.8-1.1-1.7-1.6-2.5l-.2-.3h-.1l-.2-.3a36.9,36.9,0,0,0-2.3-3Z" fill="#fff"/><path d="M63.2,103v.3a2,2,0,0,1-1.5.8c-.7,0-1.3-.3-2-1.4v-.2a18.4,18.4,0,0,0,.3-3.3V95l-.3-2.1a27.1,27.1,0,0,0-.9-4.1,12.6,12.6,0,0,0-.7-1.6l-.2-.3h0a3.7,3.7,0,0,0-2.3,1.6A20.9,20.9,0,0,0,52,95.9a50.8,50.8,0,0,0-1.6,8.5,52.1,52.1,0,0,0,1.1,17.2,22,22,0,0,0,3.2,7.7,11.6,11.6,0,0,0,6,4.7,13.1,13.1,0,0,0,7.6-.1,18.6,18.6,0,0,0,6.9-4.3c4-3.9,7-9,9.5-14.3a96.7,96.7,0,0,0,6-16.6A103.5,103.5,0,0,0,94,81.4a34.5,34.5,0,0,0,0-8.5c0-.3-.1-.6-.1-.9v-.2h0V72a18.9,18.9,0,0,0-.6,1.8,47.1,47.1,0,0,0-1.2,8.5c-.2,2.9-.3,5.9-.3,8.9,0,5.9.3,11.8.8,17.7a114.1,114.1,0,0,0,2.9,17.5,29.3,29.3,0,0,0,2.9,7.7,4.4,4.4,0,0,0,1.1,1.2l.2.2h.7a6.6,6.6,0,0,0,3-1.3,22,22,0,0,0,4.8-6.6,46.9,46.9,0,0,0,3.4-8,127.3,127.3,0,0,0,4.7-17.1c1.3-5.8,2.3-11.7,3.1-17.6.3-2.9.7-5.8.8-8.8a14.8,14.8,0,0,0,.1-2.1V72.4h0c.1-.1-.1,0,.1-.1l.9-.2.5-.3c.1.3.1-1.2.1.9h0l.2.2.3.3H122a.3.3,0,0,1-.1.2,5.8,5.8,0,0,0-.5,1.7,46.3,46.3,0,0,0-.8,8.5q-.1,4.5,0,9c.1,5.9.3,11.9.5,17.9s.3,12,.3,18c0,3-.1,6.1-.3,9.1a38.1,38.1,0,0,1-.7,4.7,8.9,8.9,0,0,1-.9,2.6l-.5.7-.3.4-.2.2h-.1l-1,.8a16.3,16.3,0,0,1-9.5,3.1,26.7,26.7,0,0,1-9.4-1.9,56.2,56.2,0,0,1-15.6-10,76.2,76.2,0,0,1-12.5-13.5,43.4,43.4,0,0,1-4.6-8.2,18.2,18.2,0,0,1-.7-2.5,7.1,7.1,0,0,1-.1-1.5,2.8,2.8,0,0,1,.1-1.3,11.6,11.6,0,0,1,1.8-4.9,19,19,0,0,1,7.6-6.3,40.7,40.7,0,0,1,8.8-3.3,100.1,100.1,0,0,1,18.1-2.7,168.7,168.7,0,0,1,36.2,1.5l2.5.4.9.2,1.8.3,3.2,1a39.2,39.2,0,0,1,6.1,2.5A10.2,10.2,0,0,1,155,102c.5.5.5.8.3.8a26.4,26.4,0,0,1-4.1-.8c.2.1-2.1-.6-4.6-1l-5-.8-1.7-.3-.8-.2-1.9-.3-8.7-1.1a168.7,168.7,0,0,0-17.4-.7,126.1,126.1,0,0,0-17.4,1.1A60.8,60.8,0,0,0,77.2,103a17.9,17.9,0,0,0-6.5,4.6,7.9,7.9,0,0,0-1.7,3.1,5.7,5.7,0,0,0-.3,1.8v.8l.2.8a26.5,26.5,0,0,0,3.7,7.3,55.7,55.7,0,0,0,5.2,6.8,76.8,76.8,0,0,0,12.7,11.5,38.8,38.8,0,0,0,7.3,4.3,25.7,25.7,0,0,0,7.9,2.4,12.7,12.7,0,0,0,7.5-1c.6-.4,1.2-.6,1.7-1l.8-.6.3-.3h.1a4.8,4.8,0,0,0,.6-1.4c.1-.6.3-1.3.4-2a77.3,77.3,0,0,0,.6-8.5v-8.8c-.1-5.8-.4-11.7-.5-17.6s-.4-11.8-.4-17.7c0-3,.1-6,.4-9a25.7,25.7,0,0,1,.7-4.6,6.7,6.7,0,0,1,1.1-2.7,3.1,3.1,0,0,1,2-1.4h.4c-.1,0,.4-.2,1.2.3a1.5,1.5,0,0,1,.8.8c.1.2.2.3.2.4a6.4,6.4,0,0,0,.2.9,20.8,20.8,0,0,1,0,2.5,17.7,17.7,0,0,1-.1,2.3c-.1,1.5-.2,2.9-.4,4.4-.3,3-.7,5.9-1.1,8.9-.9,5.8-2,11.7-3.4,17.5a120.3,120.3,0,0,1-5.3,17.1,51.9,51.9,0,0,1-4.2,8.1,22.3,22.3,0,0,1-3.2,3.8,10.1,10.1,0,0,1-4.7,2.5H99l-.9-.2a6.9,6.9,0,0,1-2.4-2,18,18,0,0,1-2.3-4.3,48.4,48.4,0,0,1-2.5-8.8,119.4,119.4,0,0,1-2.4-17.7,178.4,178.4,0,0,1-.6-17.9c0-2.9.2-5.9.5-8.9a38.7,38.7,0,0,1,.6-4.6c.2-.7.3-1.5.6-2.3a14.4,14.4,0,0,1,.9-2.4c.7-1.2,1.7-2.4,3-2.5h1l.9.4c.2.1.3.1.4.3l.4.3.6.8.5,1a4.5,4.5,0,0,0,.2.8,5,5,0,0,1,.2,1.2c.2.9.2,1.7.3,2.4a69,69,0,0,1-.5,9.2,115.9,115.9,0,0,1-3.7,17.5,100.2,100.2,0,0,1-6.4,16.8c-2.7,5.4-5.9,10.7-10.6,14.9a21.3,21.3,0,0,1-8.5,4.6,16.3,16.3,0,0,1-4.9.4,17.1,17.1,0,0,1-4.9-1,16.2,16.2,0,0,1-7.4-6.5,29.7,29.7,0,0,1-3.4-8.8,55.2,55.2,0,0,1-1-18.1,65.1,65.1,0,0,1,1.7-9,32.6,32.6,0,0,1,1.5-4.4,20.9,20.9,0,0,1,2.5-4.3,12.3,12.3,0,0,1,2-1.9,6.3,6.3,0,0,1,3.1-1h1.1l1,.5.8.7.5.7A12.8,12.8,0,0,1,62,87.6a28.9,28.9,0,0,1,1.1,4.7l.3,2.3v4.7A23.1,23.1,0,0,1,63.2,103Z" fill="#fff"/><path d="M216,109.2a11.9,11.9,0,0,1-1.2,5.6,11.2,11.2,0,0,1-3.2,3.9,12,12,0,0,1-4.5,2.3,17.9,17.9,0,0,1-5.1.7h-9.3V96.8h9a22.4,22.4,0,0,1,5.2.6,11.4,11.4,0,0,1,4.6,2.1,10.2,10.2,0,0,1,3.3,3.8A13.2,13.2,0,0,1,216,109.2Zm-6.3,0a7.3,7.3,0,0,0-.7-3.5,4.9,4.9,0,0,0-1.8-2.2,5.7,5.7,0,0,0-2.6-1.2,15.3,15.3,0,0,0-3-.3h-3v14.5h2.9a11,11,0,0,0,3.1-.4,5.7,5.7,0,0,0,2.6-1.2,4.9,4.9,0,0,0,1.8-2.2A7.5,7.5,0,0,0,209.7,109.2Z" fill="#fff"/><path d="M234.8,121.7V96.8h16.8v5.1h-11v4.7H251v4.8H240.6v5.2h11.6v5.1Z" fill="#fff"/><path d="M284.2,103.3a5.3,5.3,0,0,0-2-1.6,5.3,5.3,0,0,0-2.4-.6h-1.2l-1.1.5a1.9,1.9,0,0,0-.8.7,1.7,1.7,0,0,0-.4,1.2,1.8,1.8,0,0,0,.3,1.1,1.9,1.9,0,0,0,.8.7l1.2.6,1.6.6,2.6.9a11.9,11.9,0,0,1,2.5,1.3,9.5,9.5,0,0,1,1.9,2.1,7.6,7.6,0,0,1,.7,3.2,8.7,8.7,0,0,1-.8,3.7,7.5,7.5,0,0,1-2.1,2.6,12.8,12.8,0,0,1-3.1,1.5,13.4,13.4,0,0,1-3.5.5,15,15,0,0,1-5.2-1,11.1,11.1,0,0,1-4.2-2.6l4-4a7.6,7.6,0,0,0,2.4,1.8,6.7,6.7,0,0,0,3,.8h1.3l1.1-.5a2.7,2.7,0,0,0,.7-.8,2.8,2.8,0,0,0,.3-1.3,2.1,2.1,0,0,0-.3-1.2,5.3,5.3,0,0,0-1.1-.9,4.8,4.8,0,0,0-1.6-.7l-2.2-.8a10.9,10.9,0,0,1-2.3-.9,6.9,6.9,0,0,1-2-1.3,9.5,9.5,0,0,1-1.5-2,6.5,6.5,0,0,1-.5-2.9,6.8,6.8,0,0,1,.8-3.6,8.4,8.4,0,0,1,2.2-2.4,10.9,10.9,0,0,1,3.1-1.4,13.9,13.9,0,0,1,3.5-.4,11.2,11.2,0,0,1,4.3.8,10.7,10.7,0,0,1,3.9,2.2Z" fill="#fff"/><path d="M306.7,121.7V96.8h6.1v24.9Z" fill="#fff"/><path d="M350.7,121.8a22.9,22.9,0,0,1-5.4.6,16.3,16.3,0,0,1-5.5-1,11.2,11.2,0,0,1-4.3-2.7,10.7,10.7,0,0,1-2.8-4.1,13.8,13.8,0,0,1,0-10.8,10.9,10.9,0,0,1,2.9-4.1,11.4,11.4,0,0,1,4.2-2.6,16.1,16.1,0,0,1,5.4-.9,15.7,15.7,0,0,1,5.4.8,10.9,10.9,0,0,1,4.2,2.5l-3.8,4.3a6.1,6.1,0,0,0-2.4-1.7,7.9,7.9,0,0,0-3.2-.6,9.4,9.4,0,0,0-3,.5,9.1,9.1,0,0,0-2.3,1.7,9.7,9.7,0,0,0-1.5,2.4,8.1,8.1,0,0,0-.6,3.1,10.7,10.7,0,0,0,.5,3.2,8.7,8.7,0,0,0,1.5,2.5,6,6,0,0,0,2.4,1.6,7.9,7.9,0,0,0,3.2.6l2.1-.2,1.7-.5v-4.5h-4.7V107h10.2v13.2A20.5,20.5,0,0,1,350.7,121.8Z" fill="#fff"/><path d="M390.6,121.7l-10.1-16.3h-.1l.2,16.3h-5.9V96.8h6.9l10,16.3h.1V96.8h5.8v24.9Z" fill="#fff"/><path d="M430.6,103.3a5.6,5.6,0,0,0-2.1-1.6,5.3,5.3,0,0,0-2.4-.6h-1.2l-1.1.5a2.7,2.7,0,0,0-.8.7,2.5,2.5,0,0,0-.4,1.2,1.8,1.8,0,0,0,.3,1.1,1.9,1.9,0,0,0,.8.7l1.2.6,1.6.6,2.6.9a9.9,9.9,0,0,1,2.5,1.3,7.6,7.6,0,0,1,1.9,2.1,6.3,6.3,0,0,1,.7,3.2,7.5,7.5,0,0,1-.8,3.7,7.5,7.5,0,0,1-2.1,2.6,12.8,12.8,0,0,1-3.1,1.5,13.4,13.4,0,0,1-3.5.5,15.5,15.5,0,0,1-5.2-1,10.7,10.7,0,0,1-4.1-2.6l3.9-4a7.6,7.6,0,0,0,2.4,1.8,6.7,6.7,0,0,0,3,.8H426l1.1-.5.8-.8a5.1,5.1,0,0,0,.2-1.3,2.1,2.1,0,0,0-.3-1.2l-1-.9-1.6-.7-2.2-.8a11.7,11.7,0,0,1-2.4-.9,8.6,8.6,0,0,1-2-1.3,9.5,9.5,0,0,1-1.5-2,8.4,8.4,0,0,1-.5-2.9,8,8,0,0,1,.8-3.6,7.5,7.5,0,0,1,2.3-2.4,9.8,9.8,0,0,1,3.1-1.4,13.2,13.2,0,0,1,3.4-.4,10.9,10.9,0,0,1,4.3.8,10.7,10.7,0,0,1,3.9,2.2Z" fill="#fff"/></svg>