<svg height="77.7" viewBox="0 0 72.9 77.7" width="72.9" xmlns="http://www.w3.org/2000/svg"><g fill="#fff"><path d="m38.4 19.3a.1.1 0 0 1 -.1-.1 2.5 2.5 0 0 1 .1-.8c.2-.3.5-.5 1.2-.4a.1.1 0 0 1 .1.1 8.7 8.7 0 0 1 1.8 2.5h.1v.2l.9 1.7a47.4 47.4 0 0 1 3 7.5 51.8 51.8 0 0 1 1.9 8 30 30 0 0 1 .3 4.3 7.3 7.3 0 0 1 -1.3 4.5 2.7 2.7 0 0 1 -1.2.9 3.9 3.9 0 0 1 -1.4.2l-2.3-.5a38.9 38.9 0 0 1 -4.1-1.8 60.3 60.3 0 0 1 -7.5-4.9 73.5 73.5 0 0 1 -6.8-5.9 40.9 40.9 0 0 1 -5.7-7.3 21.6 21.6 0 0 1 -3.2-9 13.6 13.6 0 0 1 2.5-9.4 19.5 19.5 0 0 1 3.4-3.6 18.6 18.6 0 0 1 4.1-2.8 29.2 29.2 0 0 1 9.5-2.6 39.9 39.9 0 0 1 19.3 3.4 31.2 31.2 0 0 1 14.6 13.2 28.7 28.7 0 0 1 3.1 9.5 27.9 27.9 0 0 1 .2 5 29.6 29.6 0 0 1 -.6 5 20.9 20.9 0 0 1 -4.7 8.8 30 30 0 0 1 -7.7 6.1 50.6 50.6 0 0 1 -18.3 5.7 61.6 61.6 0 0 1 -18.7-.5 44.5 44.5 0 0 1 -8.8-2.6 24.3 24.3 0 0 1 -7.7-5 15.6 15.6 0 0 1 -4.2-8 17.9 17.9 0 0 1 -.2-2.3 4.9 4.9 0 0 1 .1-1.2l.3-1.1a10 10 0 0 1 2.3-4 20.5 20.5 0 0 1 7.1-4.7 53.6 53.6 0 0 1 7.7-2.6 81.1 81.1 0 0 1 15-2.2 108.3 108.3 0 0 1 14 .1l6.5.7 3.1.5h.4l.8.2h.8l1.6.5 3 1.1c3.1 1.4 1.7 1.4-.4 1l-2.3-.2-2.6-.4-.7-.2h-.4l-2.7-.5a98.7 98.7 0 0 0 -25.7-.5 68.4 68.4 0 0 0 -14.4 3 30.5 30.5 0 0 0 -6.8 3.3 8.3 8.3 0 0 0 -1.5 1.1 17.9 17.9 0 0 0 -1.4 1.3 7.6 7.6 0 0 0 -1.7 3.2 2.9 2.9 0 0 0 -.2.9v.9a12.1 12.1 0 0 0 .1 1.9 14 14 0 0 0 1.3 3.6 17.2 17.2 0 0 0 5.6 5.8c4.6 3 10.4 4.5 16.2 5.2a62.7 62.7 0 0 0 17.8-.7c5.9-1.2 11.9-3.2 16.9-6.7a22.6 22.6 0 0 0 6.3-6.4 18.4 18.4 0 0 0 2.9-8.5 26.7 26.7 0 0 0 -4.5-17.6 30.8 30.8 0 0 0 -14.6-11 40.5 40.5 0 0 0 -9-2.1 31.5 31.5 0 0 0 -9.2.2 21.8 21.8 0 0 0 -8.4 3.1 17.5 17.5 0 0 0 -6 6.4 11.4 11.4 0 0 0 -1 8.3 22.7 22.7 0 0 0 3.6 7.9 55.2 55.2 0 0 0 12.4 12.2 52.7 52.7 0 0 0 7.2 4.3 14.6 14.6 0 0 0 3.8 1.4 1.6 1.6 0 0 0 1.4 0 2.4 2.4 0 0 0 .8-1.1 11.7 11.7 0 0 0 .3-3.8 25.8 25.8 0 0 0 -.4-3.9 65.3 65.3 0 0 0 -2-7.6 47.6 47.6 0 0 0 -2.9-6.9l-.5-.9h-.1a14.2 14.2 0 0 0 -1.1-1.6z"/><path d="m20.3 32c0 .1 0 .1-.1.1a.8.8 0 0 1 -.7.5 1.3 1.3 0 0 1 -1-.7h-.1a10.5 10.5 0 0 0 0-2.5v-.4h-.1a.9.9 0 0 0 -.1-.5.6.6 0 0 0 -.1-.4v-.2h-.3a7.1 7.1 0 0 0 -.8 1.5c-.2.6-.3 1.3-.5 1.9a25.6 25.6 0 0 0 -.3 3.9 15.9 15.9 0 0 0 .7 3.8 4.1 4.1 0 0 0 2.1 2.4 3.6 3.6 0 0 0 3.2-.3 9.2 9.2 0 0 0 2.6-2.6 24.4 24.4 0 0 0 3.2-7.4 27.4 27.4 0 0 0 .9-3.9 26.6 26.6 0 0 0 .3-3.9c-.1-.3-.1-.6-.2-.7l.3-.2h.2l.3.4c-.1 0-.2.3-.3.6s-.1.6-.2.9a26.1 26.1 0 0 0 -.2 4 44.1 44.1 0 0 0 .5 8.1 22.4 22.4 0 0 0 .8 3.9 4.8 4.8 0 0 0 .8 1.6.3.3 0 0 0 .1.2l.5-.2a7.9 7.9 0 0 0 2.1-2.9c.5-1.3.9-2.5 1.3-3.8a77.3 77.3 0 0 0 1.6-8.1 27.1 27.1 0 0 0 .4-4v-.2h.6c.1 0 .2-.2.2-.1v.2l.3.3a.6.6 0 0 1 -.1.4 12.7 12.7 0 0 0 -.1 2c-.2 5.1.3 10.3.2 15.6a14.9 14.9 0 0 1 -.2 2.1 3.4 3.4 0 0 1 -.1 1 3 3 0 0 1 -.7 1.4 5.3 5.3 0 0 1 -2.1 1.2 4.5 4.5 0 0 1 -2.3.2 10.7 10.7 0 0 1 -4-1.5 19.9 19.9 0 0 1 -3.3-2.4 25.4 25.4 0 0 1 -2.8-2.9 16.3 16.3 0 0 1 -2.3-3.5c-.1-.4-.3-.7-.4-1.2v-1.3a4.2 4.2 0 0 1 1.3-2.1 10.2 10.2 0 0 1 3.8-2.1 30.9 30.9 0 0 1 8-1.1 26.7 26.7 0 0 1 4 0h3l1.7.2a21 21 0 0 1 4.7 1.4c1.6.7 1.9 1.3 1.7 1.3a7 7 0 0 1 -2-.3l-2.3-.2-2.5-.2h-8.2a31.6 31.6 0 0 0 -7.5.7 8.6 8.6 0 0 0 -3 1.6 4.2 4.2 0 0 0 -.8 1.2v.6a1.9 1.9 0 0 0 .2.7 14.9 14.9 0 0 0 2 3.1 22.3 22.3 0 0 0 2.6 2.7 12.7 12.7 0 0 0 6.3 3.4 2.9 2.9 0 0 0 1.6-.1 2.7 2.7 0 0 0 1.3-.7c0 .1.1-.1.2-.4s.1-.5.1-.8a12.8 12.8 0 0 0 .1-1.9c.1-5.2-.4-10.4-.2-15.7a16.4 16.4 0 0 1 .2-2.2c.1-.2.1-.4.2-.6a1 1 0 0 1 .4-.8 1 1 0 0 1 .6-.5h.3a.5.5 0 0 1 .5.1c.3.1.4.2.4.3v.2c0 .1.1.1.1.2a1.6 1.6 0 0 1 0 .7c0 1.5-.2 2.9-.3 4.3a81.5 81.5 0 0 1 -1.6 8.3c-.4 1.3-.9 2.7-1.4 4a19.8 19.8 0 0 1 -1.1 2 4.9 4.9 0 0 1 -1.8 1.7 2.3 2.3 0 0 1 -1.4.4 1.7 1.7 0 0 1 -1-.3 1 1 0 0 1 -.6-.5 6.1 6.1 0 0 1 -1-2.2 21 21 0 0 1 -.9-4.2 59.3 59.3 0 0 1 -.6-8.4 31.1 31.1 0 0 1 .3-4.3 3.6 3.6 0 0 1 .2-1.1 3 3 0 0 1 .6-1.3 1 1 0 0 1 .5-.4 1.2 1.2 0 0 1 .8-.2l.5.2.3.2.3.5a3.5 3.5 0 0 1 .3 1.3 20.8 20.8 0 0 1 -.3 4.4 27.1 27.1 0 0 1 -.9 4.1 27.8 27.8 0 0 1 -3.4 7.9 12.2 12.2 0 0 1 -3.2 3.2 5.6 5.6 0 0 1 -4.9.4 4.3 4.3 0 0 1 -2-1.5 7.8 7.8 0 0 1 -1.1-2 11.7 11.7 0 0 1 -.8-4.4 16.3 16.3 0 0 1 .3-4.4 8.3 8.3 0 0 1 .6-2.1 7.5 7.5 0 0 1 1.2-2.1c.2-.2.3-.4.6-.5l.5-.2h.5a1.5 1.5 0 0 1 1.5 1c.1.1.2.2.2.3v.3c.1.2.1.4.2.6a1.3 1.3 0 0 0 .1.6v.4a14 14 0 0 1 .2 2.9z"/><path d="m7.7 69.5a4.1 4.1 0 0 1 -.3 1.6 4.5 4.5 0 0 1 -.9 1l-1.3.7-1.4.2h-2.6v-7h2.5l1.5.2a3.1 3.1 0 0 1 1.3.6 4.5 4.5 0 0 1 .9 1 4.3 4.3 0 0 1 .3 1.7zm-1.7 0a3 3 0 0 0 -.2-1l-.5-.6a1.3 1.3 0 0 0 -.8-.3h-1.6v4h1.6l.8-.3.5-.6a3 3 0 0 0 .2-1.2z"/><path d="m12.9 73v-7h4.7v1.5h-3v1.3h2.8v1.3h-2.8v1.4h3.2v1.5z"/><path d="m26.7 67.8-.6-.4-.7-.2h-.6l-.2.2a.4.4 0 0 0 -.1.3v.3l.3.2.3.2.4.2.8.2.7.4c.2.1.3.3.5.6a1.9 1.9 0 0 1 .2.8 3.6 3.6 0 0 1 -.2 1.1l-.6.7-.9.6h-1a3.4 3.4 0 0 1 -1.4-.2 2.5 2.5 0 0 1 -1.2-.8l1.1-1 .7.6.8.2h.7l.2-.2a.6.6 0 0 0 .1-.6.4.4 0 0 0 -.1-.3l-.3-.3-.4-.2-.6-.2-.7-.2-.6-.4c-.1-.2-.3-.3-.4-.6a1.7 1.7 0 0 1 -.1-.8 2.4 2.4 0 0 1 .2-.9l.6-.7.9-.4h1a2.5 2.5 0 0 1 1.2.2 2.1 2.1 0 0 1 1 .6z"/><path d="m32.9 73v-7h1.7v7z"/><path d="m45.1 73h-1.4a3.3 3.3 0 0 1 -2.8-1 4.4 4.4 0 0 1 -.8-1.1 3.9 3.9 0 0 1 -.2-1.5 3.4 3.4 0 0 1 .2-1.5 5 5 0 0 1 .8-1.2l1.2-.7a3.9 3.9 0 0 1 1.5-.2 3.4 3.4 0 0 1 1.5.2 3.5 3.5 0 0 1 1.2.7l-1.1 1.3a1.5 1.5 0 0 0 -.6-.5l-.9-.2-.8.2-.7.4a2.5 2.5 0 0 0 -.4.7 2.1 2.1 0 0 0 0 1.8 2.5 2.5 0 0 0 .4.7l.6.4.9.2h1.1v-1.5h-1.3v-1.3h2.8v3.6a3.3 3.3 0 0 1 -1.2.5z"/><path d="m56.2 73-2.8-4.6v4.6h-1.6v-7h1.9l2.8 4.6v-4.6h1.6v7z"/><path d="m67.4 67.8-.6-.4-.7-.2h-.6l-.3.2v.6c.1.1.1.2.2.2l.4.2.4.2.8.2.6.4c.3.1.4.3.6.6a1.9 1.9 0 0 1 .2.8 2 2 0 0 1 -.3 1.1 1.8 1.8 0 0 1 -.5.7l-.9.4h-1a3.2 3.2 0 0 1 -1.4-.2 2.5 2.5 0 0 1 -1.2-.8l1.1-.8.7.6.8.2h.7l.2-.2a.6.6 0 0 0 .1-.4v-.3l-.3-.3-.4-.2-.7-.2-.6-.2-.6-.4c-.1-.2-.3-.3-.4-.6a1.7 1.7 0 0 1 -.1-.8 1.3 1.3 0 0 1 .2-.9l.6-.7.9-.4h.9a2.5 2.5 0 0 1 1.2.2 2 2 0 0 1 1.1.6z"/></g></svg>