<svg id="Layer_1" data-name="Layer 1" xmlns="http://www.w3.org/2000/svg" xmlns:xlink="http://www.w3.org/1999/xlink" width="19in" height="11.1in" viewBox="0 0 1369.7 799.7"><defs><linearGradient id="linear-gradient" x1="247.15" y1="253.11" x2="84.72" y2="84.44" gradientUnits="userSpaceOnUse"><stop offset="0" stop-color="#ffb3b7"/><stop offset="1" stop-color="#ffecc0"/></linearGradient><linearGradient id="linear-gradient-2" x1="262.2" y1="114.46" x2="489.19" y2="115.75" xlink:href="#linear-gradient"/><linearGradient id="linear-gradient-3" x1="570.66" y1="78.06" x2="569.08" y2="303.53" xlink:href="#linear-gradient"/><linearGradient id="linear-gradient-4" x1="569.86" y1="-95.65" x2="571.11" y2="129.82" xlink:href="#linear-gradient"/><linearGradient id="linear-gradient-5" x1="761.99" y1="140.07" x2="943.81" y2="8.22" xlink:href="#linear-gradient"/><linearGradient id="linear-gradient-6" x1="913.67" y1="113.35" x2="1139.53" y2="113.35" xlink:href="#linear-gradient"/><radialGradient id="radial-gradient" cx="1252.03" cy="114.92" r="114.57" gradientUnits="userSpaceOnUse"><stop offset="0" stop-color="#ffecc0"/><stop offset="0.26" stop-color="#ffe8bf"/><stop offset="0.55" stop-color="#ffdbbd"/><stop offset="0.84" stop-color="#ffc5ba"/><stop offset="1" stop-color="#ffb6b7"/></radialGradient><radialGradient id="radial-gradient-2" cx="114.67" cy="344.05" r="114.18" xlink:href="#radial-gradient"/><linearGradient id="linear-gradient-7" x1="227.89" y1="243.54" x2="398.77" y2="392.97" xlink:href="#linear-gradient"/><linearGradient id="linear-gradient-8" x1="608.33" y1="308.16" x2="447.82" y2="468.67" xlink:href="#linear-gradient"/><linearGradient id="linear-gradient-9" x1="797.58" y1="168.65" x2="798.77" y2="393.25" gradientUnits="userSpaceOnUse"><stop offset="0" stop-color="#ffb3b7"/><stop offset="0.13" stop-color="#ffbcb8"/><stop offset="0.69" stop-color="#ffdfbe"/><stop offset="1" stop-color="#ffecc0"/></linearGradient><linearGradient id="linear-gradient-10" x1="1077.28" y1="293.33" x2="919.77" y2="453.73" xlink:href="#linear-gradient"/><linearGradient id="linear-gradient-11" x1="1256.09" y1="417.4" x2="1254.82" y2="189.41" xlink:href="#linear-gradient"/><linearGradient id="linear-gradient-12" x1="1253.02" y1="542.68" x2="1255.32" y2="318.23" xlink:href="#linear-gradient"/><linearGradient id="linear-gradient-13" x1="-37.87" y1="455.39" x2="142.74" y2="594.55" xlink:href="#linear-gradient"/><linearGradient id="linear-gradient-14" x1="314.94" y1="594.56" x2="494.98" y2="456.75" xlink:href="#linear-gradient"/><linearGradient id="linear-gradient-15" x1="458.52" y1="686.24" x2="455.82" y2="460.68" gradientUnits="userSpaceOnUse"><stop offset="0" stop-color="#ffb3b7"/><stop offset="0.13" stop-color="#ffc4ba"/><stop offset="0.35" stop-color="#ffdabd"/><stop offset="0.55" stop-color="#ffe7bf"/><stop offset="0.74" stop-color="#ffecc0"/><stop offset="0.87" stop-color="#ffeac0"/><stop offset="0.92" stop-color="#ffe3bf"/><stop offset="0.95" stop-color="#ffd8bd"/><stop offset="0.98" stop-color="#ffc7ba"/><stop offset="1" stop-color="#ffb3b7"/></linearGradient><linearGradient id="linear-gradient-16" x1="757.32" y1="536.48" x2="927.53" y2="686.26" xlink:href="#linear-gradient"/><linearGradient id="linear-gradient-17" x1="457" y1="687.42" x2="457" y2="686.75" xlink:href="#linear-gradient-15"/><linearGradient id="linear-gradient-18" x1="571.18" y1="687.66" x2="571.66" y2="459.66" xlink:href="#linear-gradient-15"/><linearGradient id="linear-gradient-19" x1="1024.48" y1="572.78" x2="1185.89" y2="573.16" gradientUnits="userSpaceOnUse"><stop offset="0" stop-color="#ffb3b7"/><stop offset="0.59" stop-color="#ffd8bd"/><stop offset="1" stop-color="#ffecc0"/></linearGradient><linearGradient id="linear-gradient-20" x1="1363.4" y1="663.7" x2="1184.59" y2="515.53" gradientUnits="userSpaceOnUse"><stop offset="0" stop-color="#ffb3b7"/><stop offset="0.13" stop-color="#ffc4ba"/><stop offset="0.35" stop-color="#ffdabd"/><stop offset="0.55" stop-color="#ffe7bf"/><stop offset="0.74" stop-color="#ffecc0"/></linearGradient><linearGradient id="linear-gradient-21" x1="41.02" y1="727.29" x2="121.39" y2="807.43" gradientUnits="userSpaceOnUse"><stop offset="0" stop-color="#b6e5ef"/><stop offset="1" stop-color="#b09dda"/></linearGradient><linearGradient id="linear-gradient-22" x1="639.77" y1="841.83" x2="562.46" y2="758.74" gradientTransform="translate(-608.8 1324.7) rotate(-90)" xlink:href="#linear-gradient-21"/><linearGradient id="linear-gradient-23" x1="330.93" y1="792.96" x2="253.62" y2="709.87" gradientUnits="userSpaceOnUse"><stop offset="0" stop-color="#b6e5ef"/><stop offset="0.63" stop-color="#b09dda"/></linearGradient><linearGradient id="linear-gradient-24" x1="345.26" y1="698.34" x2="432.07" y2="771.46" xlink:href="#linear-gradient-23"/><linearGradient id="linear-gradient-25" x1="898.48" y1="751.23" x2="973.32" y2="836.55" gradientTransform="translate(-267.3 1666.2) rotate(-90)" xlink:href="#linear-gradient-21"/><linearGradient id="linear-gradient-26" x1="688.79" y1="810.55" x2="611.48" y2="727.46" xlink:href="#linear-gradient-21"/><linearGradient id="linear-gradient-27" x1="1138.11" y1="764.42" x2="1211.67" y2="850.85" gradientTransform="translate(-39.7 1893.9) rotate(-90)" gradientUnits="userSpaceOnUse"><stop offset="0" stop-color="#b6e5ef"/><stop offset="0.97" stop-color="#b09dda"/></linearGradient><linearGradient id="linear-gradient-28" x1="919.76" y1="819.45" x2="845.49" y2="733.63" gradientUnits="userSpaceOnUse"><stop offset="0" stop-color="#b6e5ef"/><stop offset="0.21" stop-color="#b6dfed"/><stop offset="0.48" stop-color="#b4cfe9"/><stop offset="0.78" stop-color="#b2b5e1"/><stop offset="1" stop-color="#b09dda"/></linearGradient><linearGradient id="linear-gradient-29" x1="930.93" y1="705.28" x2="1009.86" y2="786.83" gradientUnits="userSpaceOnUse"><stop offset="0" stop-color="#b6e5ef"/><stop offset="0.24" stop-color="#b6e1ee"/><stop offset="0.48" stop-color="#b5d6eb"/><stop offset="0.7" stop-color="#b3c3e5"/><stop offset="0.92" stop-color="#b1a8dd"/><stop offset="1" stop-color="#b09dda"/></linearGradient><linearGradient id="linear-gradient-30" x1="1538.9" y1="829.42" x2="1461.58" y2="746.33" gradientTransform="translate(301.8 2235.4) rotate(-90)" xlink:href="#linear-gradient-21"/><linearGradient id="linear-gradient-31" x1="1241.6" y1="792.96" x2="1164.29" y2="709.87" xlink:href="#linear-gradient-21"/><linearGradient id="linear-gradient-32" x1="1355.43" y1="792.96" x2="1278.12" y2="709.87" xlink:href="#linear-gradient-21"/></defs><polygon points="228.7 687.4 1.5 687.4 0.7 688.2 229.9 688.2 229.9 687.4 229.7 687.4 228.7 687.4" fill="#b09dda"/><path d="M228.4,0h0Z" fill="#b09dda"/><polygon points="1138.2 687.4 1137.4 688.2 1139.5 688.2 1138.7 687.4 1138.2 687.4" fill="#b09dda"/><polygon points="1140.7 687.4 1139.5 687.4 1139.5 688.2 1366.7 688.2 1366.7 687.4 1141.7 687.4 1140.7 687.4" fill="#b09dda"/><polygon points="1138.7 687.4 1139.5 688.2 1139.5 687.4 1138.7 687.4" fill="#b09dda"/><path d="M228.6,229.3h0V1.8L.9,229.4H228.6Z" fill="url(#linear-gradient)"/><polygon points="228.6 1.8 228.6 0.4 0.7 0.4 0.7 229.4 0.9 229.4 228.6 1.8" fill="#ffb3b7"/><path d="M228.6,229.3Z" fill="#ffb3b7"/><path d="M228.7,229.3V1.7h-.1V229.3Z" fill="#ffecc0"/><polygon points="228.7 1.7 228.7 0.4 228.6 0.4 228.6 1.8 228.7 1.7" fill="#ffb3b7"/><path d="M343.1,114.6h0A114.7,114.7,0,0,1,229.7,229.3h227V.9l-.6-.5H238.2A114.7,114.7,0,0,1,343.1,114.6Z" fill="url(#linear-gradient-2)"/><path d="M229.7.7V229.3A114.7,114.7,0,0,0,343.1,114.6h0A114.7,114.7,0,0,0,238.2.4h-8.3Z" fill="#ffecc0"/><polygon points="229.9 0.4 229.7 0.4 229.7 0.7 229.9 0.4" fill="#ffb3b7"/><polygon points="456.7 0.4 456.1 0.4 456.7 0.9 456.7 0.4" fill="#ffb3b7"/><path d="M229.7,229.3h0Z" fill="#ffb3b7"/><path d="M229.7,229.3V.7l-1,1V229.3Z" fill="#ffecc0"/><polygon points="229.7 0.4 228.7 0.4 228.7 1.7 229.7 0.7 229.7 0.4" fill="#ffb3b7"/><polygon points="684.7 1.1 684.3 1.5 684.7 1.9 684.7 1.1" fill="#ffb3b7"/><polygon points="683.1 229.4 683.1 229.3 683.1 2.7 570.8 114.7 457.7 1.9 457.7 229.4 683.1 229.4" fill="url(#linear-gradient-3)"/><path d="M683.1,229.4h1.6V2l-.4-.5-1.2,1.2V229.3Z" fill="#ffecc0"/><path d="M683.1,229.3h0Z" fill="#ffb3b7"/><polygon points="570.8 114.7 683.1 2.7 683.1 0.4 457.7 0.4 457.7 1.9 570.8 114.7" fill="url(#linear-gradient-4)"/><polygon points="684.7 1.1 684.7 0.4 683.1 0.4 684.3 1.5 684.7 1.1" fill="#ffb3b7"/><polygon points="684.3 1.5 683.1 0.4 683.1 2.7 684.3 1.5" fill="#ffb3b7"/><polygon points="457.7 1.9 456.7 0.9 456.7 229.4 457.7 229.4 457.7 1.9" fill="#ffecc0"/><polygon points="457.7 1.9 457.7 0.4 456.7 0.4 456.7 0.9 457.7 1.9" fill="#ffb3b7"/><path d="M912.4,229.4h.3v-2.1l-1.4,1.3.8.8Z" fill="#ffb3b7"/><polygon points="910.3 227.6 910.3 0.4 685.7 0.4 685.7 3 910.3 227.6" fill="url(#linear-gradient-5)"/><path d="M912.4,229.3h0Z" fill="#ffb3b7"/><polygon points="910.3 229.4 910.3 227.6 685.7 3 685.7 229.4 910.3 229.4" fill="#ffecc0"/><polygon points="912.1 229.4 911.3 228.6 910.5 229.4 912.1 229.4" fill="#ffb3b7"/><polygon points="911.3 228.6 912.7 227.3 912.7 0.4 910.3 0.4 910.3 227.6 911.3 228.6" fill="#ffb3b7"/><polygon points="910.5 229.4 911.3 228.6 910.3 227.6 910.3 229.4 910.5 229.4" fill="#ffb3b7"/><polygon points="684.7 1.9 685.7 3 685.7 0.4 685.4 0.4 684.7 1.1 684.7 1.9" fill="#ffb3b7"/><polygon points="685.7 229.4 685.7 3 684.7 1.9 684.7 229.4 685.7 229.4" fill="#ffecc0"/><polygon points="685.4 0.4 684.7 0.4 684.7 1.1 685.4 0.4" fill="#ffb3b7"/><path d="M913.7,229.4h227V142.3a111.3,111.3,0,0,1-3.3-27.2h0a111.5,111.5,0,0,1,3.3-27.3V.4h-1.2L913.7,226.3Z" fill="#ffb3b7"/><polygon points="1139.5 0.4 913.7 0.4 913.7 226.3 1139.5 0.4" fill="url(#linear-gradient-6)"/><polygon points="913.7 229.4 913.7 226.3 912.7 227.3 912.7 229.4 913.7 229.4" fill="#ffb3b7"/><polygon points="913.7 226.3 913.7 0.4 912.7 0.4 912.7 227.3 913.7 226.3" fill="#ffb3b7"/><path d="M1252,.4a114.7,114.7,0,0,1,114.7,114.7h0a114.6,114.6,0,0,1-106.9,114.3h109.9V.4Z" fill="#ffecc0"/><path d="M1141.7,146.1c-.4-1.2-.7-2.5-1-3.8v87.1h103.6A114.7,114.7,0,0,1,1141.7,146.1Z" fill="#ffecc0"/><path d="M1141.7.4h-1V87.8c.3-1.3.6-2.6,1-3.8A114.6,114.6,0,0,1,1252,.4Z" fill="#ffecc0"/><path d="M1252,.4h0A114.6,114.6,0,0,0,1141.7,84c-.4,1.2-.7,2.5-1,3.8a111.5,111.5,0,0,0-3.3,27.3h0a111.3,111.3,0,0,0,3.3,27.2c.3,1.3.6,2.6,1,3.8a114.7,114.7,0,0,0,102.6,83.3h15.5a114.6,114.6,0,0,0,106.9-114.3h0A114.7,114.7,0,0,0,1252,.4Z" fill="url(#radial-gradient)"/><path d="M126.4,458.4H228.7v-97A114.7,114.7,0,0,1,126.4,458.4Z" fill="#ffecc0"/><path d="M115.3,229.7h0a114.7,114.7,0,0,1,113.4,97.5V229.4H.9l-.2.3V344.3A114.6,114.6,0,0,1,115.3,229.7Z" fill="#ffecc0"/><path d="M.7,344.3V458.4H104.2A114.5,114.5,0,0,1,.7,344.3Z" fill="#ffecc0"/><polygon points="0.7 229.4 0.7 229.7 0.9 229.4 0.7 229.4" fill="#ffb3b7"/><path d="M104.2,458.4h22.2a114.7,114.7,0,0,0,102.3-97V327.2a114.7,114.7,0,0,0-113.4-97.5h0A114.6,114.6,0,0,0,.7,344.3h0A114.5,114.5,0,0,0,104.2,458.4Z" fill="url(#radial-gradient-2)"/><path d="M244.4,458.4H456.7V255.6C444.4,365,355.1,451,244.4,458.4Z" fill="#ffb3b7"/><polygon points="456 229.7 456.7 229.7 456.7 229.4 229.7 229.4 229.7 229.7 456 229.7" fill="#ffb3b7"/><path d="M456,229.7H229.7V336.6c.1,2.5.2,5.1.2,7.7h0c0,2.6-.1,5.2-.2,7.8V458.4h14.7c110.7-7.4,200-93.4,212.3-202.8V230.4Z" fill="url(#linear-gradient-7)"/><path d="M229.9,344.3h0c0-2.6-.1-5.2-.2-7.7v15.5C229.8,349.5,229.9,346.9,229.9,344.3Z" fill="#ffb3b7"/><polygon points="456.7 229.7 456 229.7 456.7 230.3 456.7 229.7" fill="#ffb3b7"/><path d="M228.9,360a5.9,5.9,0,0,0-.2,1.4v97h.2Z" fill="#ffb3b7"/><path d="M228.9,229.7h.8v-.3h-1v97.8a7.7,7.7,0,0,0,.2,1.5Z" fill="#ffb3b7"/><path d="M228.9,328.7a7.7,7.7,0,0,1-.2-1.5v34.2a5.9,5.9,0,0,1,.2-1.4Z" fill="#ffb3b7"/><path d="M229.7,229.7h-.8v99c.3,2.6.6,5.2.8,7.9Z" fill="#ffb3b7"/><path d="M229.7,352.1c-.2,2.6-.5,5.3-.8,7.9v98.4h.8Z" fill="#ffb3b7"/><path d="M229.7,336.6c-.2-2.7-.5-5.3-.8-7.9V360c.3-2.6.6-5.3.8-7.9Z" fill="#ffb3b7"/><path d="M458.1,231.8c0,4.1-.2,8.2-.4,12.3V458.4h227Z" fill="url(#linear-gradient-8)"/><polygon points="683.1 229.7 683.1 229.4 457.7 229.4 457.7 229.7 458.1 229.7 683.1 229.7" fill="#ffb3b7"/><path d="M457.7,244.1c.2-4.1.4-8.2.4-12.3l-.4-.4Z" fill="#ffb3b7"/><path d="M683.1,229.7h-225v2.1L684.7,458.4V248.1A124.6,124.6,0,0,1,683.1,229.7Z" fill="#ffecc0"/><path d="M458.1,229.7h-.4v1.7l.4.4v-2.1Z" fill="#ffb3b7"/><path d="M683.1,229.7a124.6,124.6,0,0,0,1.6,18.4V229.7Z" fill="#ffb3b7"/><path d="M683.1,229.7v-.3h0v.3Z" fill="#ffb3b7"/><path d="M684.7,229.7v-.3h-1.6v.3Z" fill="#ffb3b7"/><path d="M456.7,255.6V458.4h1V244.1C457.4,248,457.1,251.8,456.7,255.6Z" fill="#ffb3b7"/><rect x="456.7" y="229.4" width="1" height="0.27" fill="#ffb3b7"/><path d="M456.7,230.4v25.2c.4-3.8.7-7.6,1-11.5V231.4Z" fill="#ffb3b7"/><polygon points="457.7 231.3 457.7 229.7 456.7 229.7 456.7 230.3 457.7 231.3" fill="#ffb3b7"/><path d="M912.4,229.7h0v2.1l.3.3v-2.7h-.3v.3Z" fill="#ffb3b7"/><path d="M797.8,343.9h0a114.6,114.6,0,0,1-112.1-90.5v205H910.3v-207A114.7,114.7,0,0,1,797.8,343.9Z" fill="#ffb3b7"/><path d="M685.7,229.7v23.7a114.6,114.6,0,0,0,112.1,90.5h0a114.7,114.7,0,0,0,112.5-92.5V229.7Z" fill="url(#linear-gradient-9)"/><path d="M910.3,229.7l2.1,2.1v-2.1Z" fill="#ffb3b7"/><path d="M912.4,229.4h-.3l.3.3Z" fill="#ffb3b7"/><path d="M912.4,231.8a126.4,126.4,0,0,1-2.1,19.6v207h2.4V232.1Z" fill="#ffb3b7"/><path d="M910.3,251.4a126.4,126.4,0,0,0,2.1-19.6l-2.1-2.1Z" fill="#ffb3b7"/><polygon points="912.4 229.7 912.4 229.7 912.4 229.7 912.4 229.7" fill="#ffb3b7"/><polygon points="912.4 229.7 912.4 229.7 912.1 229.4 910.5 229.4 910.3 229.7 912.4 229.7" fill="#ffb3b7"/><rect x="685.7" y="229.4" width="224.6" height="0.27" fill="#ffb3b7"/><polygon points="910.5 229.4 910.3 229.4 910.3 229.7 910.5 229.4" fill="#ffb3b7"/><path d="M685.3,251.4v207h.4v-205A14.2,14.2,0,0,1,685.3,251.4Z" fill="#ffb3b7"/><polygon points="684.7 458.4 684.7 458.4 684.7 458.4 684.7 458.4" fill="#ffb3b7"/><path d="M684.7,248.1V458.4h.6v-207C685,250.3,684.9,249.2,684.7,248.1Z" fill="#ffb3b7"/><path d="M685.3,229.7v21.7a14.2,14.2,0,0,0,.4,2V229.7Z" fill="#ffb3b7"/><path d="M684.7,229.7v18.4c.2,1.1.3,2.2.6,3.3V229.7Z" fill="#ffb3b7"/><polygon points="685.3 229.7 685.7 229.7 685.7 229.4 684.7 229.4 684.7 229.7 685.3 229.7" fill="#ffb3b7"/><polygon points="1138.5 457.9 1140.7 455.7 1140.7 229.4 913.7 229.4 913.7 233.1 1138.5 457.9" fill="#ffecc0"/><polygon points="913.7 233.1 913.7 458.4 1137.9 458.4 1138.5 457.9 913.7 233.1" fill="url(#linear-gradient-10)"/><polygon points="1139 458.4 1140.7 458.4 1140.7 455.7 1138.5 457.9 1139 458.4" fill="#ffb3b7"/><polygon points="1137.9 458.4 1139 458.4 1138.5 457.9 1137.9 458.4" fill="#ffb3b7"/><polygon points="912.7 232.1 913.7 233.1 913.7 229.4 912.7 229.4 912.7 232.1" fill="#ffb3b7"/><polygon points="912.7 232.1 912.7 458.4 913.7 458.4 913.7 233.1 912.7 232.1" fill="#ffb3b7"/><path d="M1252,229.7h0c-2.6,0-5.2-.1-7.7-.3H1141.7V454.7l110.3-110h0l114.1,113.7h3.6v-229H1259.8Z" fill="url(#linear-gradient-11)"/><polygon points="1366.1 458.4 1252 344.7 1141.7 454.7 1141.7 458.4 1366.1 458.4" fill="url(#linear-gradient-12)"/><polygon points="1252 344.7 1252 344.7 1252 344.7 1252 344.7" fill="#ffb3b7"/><path d="M1252,229.7h0l7.8-.3h-15.5C1246.8,229.6,1249.4,229.7,1252,229.7Z" fill="#ffb3b7"/><polygon points="1140.7 455.7 1141.7 454.7 1141.7 229.4 1140.7 229.4 1140.7 455.7" fill="#ffecc0"/><polygon points="1140.7 458.4 1141.7 458.4 1141.7 454.7 1140.7 455.7 1140.7 458.4" fill="#ffb3b7"/><path d="M228.7,458.4H126.4a103.1,103.1,0,0,1-11.1.5h0a103.1,103.1,0,0,1-11.1-.5H.7v229h.8L228.7,460.2Z" fill="url(#linear-gradient-13)"/><path d="M115.3,458.9h0a103.1,103.1,0,0,0,11.1-.5H104.2A103.1,103.1,0,0,0,115.3,458.9Z" fill="#ffb3b7"/><polygon points="228.7 460.2 1.5 687.4 228.7 687.4 228.7 460.2" fill="#ffb3b7"/><path d="M244.4,458.4c-4.9.3-9.8.5-14.7.5h227v-.5Z" fill="#ffb3b7"/><polygon points="229.9 460 229.9 687.4 456.7 687.4 456.7 686.8 229.9 460" fill="#ffecc0"/><polygon points="229.7 459.8 229.7 687.4 229.9 687.4 229.9 460 229.7 459.8" fill="#ffb3b7"/><path d="M229.7,458.9c4.9,0,9.8-.2,14.7-.5H229.7Z" fill="#ffb3b7"/><polygon points="229.9 460 456.7 686.8 456.7 458.9 229.9 458.9 229.9 460" fill="url(#linear-gradient-14)"/><polygon points="229.9 458.9 229.7 458.9 229.7 459.2 229.9 458.9" fill="#ffb3b7"/><polygon points="229.7 459.2 229.7 459.8 229.9 460 229.9 458.9 229.7 459.2" fill="#ffb3b7"/><polygon points="228.9 458.9 228.9 458.4 228.7 458.4 228.7 460.2 229.4 459.5 228.9 458.9" fill="#ffb3b7"/><path d="M229.7,458.9Z" fill="#ffb3b7"/><polygon points="228.7 460.2 228.7 687.4 229.7 687.4 229.7 459.8 229.4 459.5 228.7 460.2" fill="#ffb3b7"/><path d="M228.9,458.4v.5h.8v-.5Z" fill="#ffb3b7"/><polygon points="228.9 458.9 229.4 459.5 229.7 459.2 229.7 458.9 228.9 458.9 228.9 458.9" fill="#ffb3b7"/><polygon points="229.4 459.5 229.7 459.8 229.7 459.2 229.4 459.5" fill="#ffb3b7"/><path d="M458.1,459.4Z" fill="#ffb3b7"/><path d="M684.7,661.7a242.9,242.9,0,0,0-1.6,25.7h1.6Z" fill="#ffb3b7"/><rect x="456.7" y="458.4" width="1" height="0.53" fill="#ffb3b7"/><polygon points="457.7 458.9 456.7 458.9 456.7 686.8 457.3 687.4 457.7 687.4 457.7 458.9" fill="url(#linear-gradient-15)"/><rect x="912.4" y="458.9" width="0.3" height="228.47" fill="#ffb3b7"/><path d="M910.3,458.4H685.7v1h1.7a118.8,118.8,0,0,1-1.7,19.9V654.1c16.5-110.5,111.7-195.2,226.7-195.2h-2.1Z" fill="#ffecc0"/><path d="M687.4,459.3h0Z" fill="#ffb3b7"/><polygon points="910.3 458.4 910.3 458.9 912.4 458.9 912.4 458.9 912.7 458.9 912.7 458.4 910.3 458.4" fill="#ffb3b7"/><path d="M912.4,458.9c-115,0-210.2,84.7-226.7,195.2v33.3H912.4V458.9Z" fill="url(#linear-gradient-16)"/><path d="M684.7,484.3V661.7c.3-2.5.6-5.1,1-7.6V479.3C685.4,480.9,685,482.6,684.7,484.3Z" fill="#ffecc0"/><polygon points="456.7 687.4 457.3 687.4 456.7 686.8 456.7 687.4" fill="url(#linear-gradient-17)"/><path d="M685.3,458.4H457.7v229H683.1a242.9,242.9,0,0,1,1.6-25.7V484.3a114.6,114.6,0,0,1-111.9,89.6h0A114.7,114.7,0,0,1,458.1,459.4H685.7v-1Z" fill="url(#linear-gradient-18)"/><path d="M685.7,459.4H458.1A114.7,114.7,0,0,0,572.8,573.9h0a114.6,114.6,0,0,0,111.9-89.6c.3-1.7.7-3.4,1-5a118.8,118.8,0,0,0,1.7-19.9Z" fill="#ffb3b7"/><path d="M684.7,687.4h1V654.1c-.4,2.5-.7,5.1-1,7.6Z" fill="#ffb3b7"/><polygon points="1140.7 685 1140.7 458.9 1139.5 458.9 1139.5 686.1 1140.7 685" fill="#ffb3b7"/><polygon points="1025.3 573.6 1139.5 458.9 1137.4 458.9 913.7 458.9 913.7 687.4 1138.2 687.4 1138.5 687.1 1025.3 573.6" fill="#ffecc0"/><polygon points="913.7 458.4 913.7 458.9 1137.4 458.9 1137.9 458.4 913.7 458.4" fill="#ffecc0"/><polygon points="1140.7 458.4 1139 458.4 1139.5 458.9 1140.7 458.9 1140.7 458.4" fill="#ffb3b7"/><polygon points="1137.9 458.4 1137.4 458.9 1139.5 458.9 1139 458.4 1137.9 458.4" fill="#ffb3b7"/><polygon points="1139.5 458.9 1025.3 573.6 1138.5 687.1 1139.5 686.1 1139.5 458.9" fill="url(#linear-gradient-19)"/><polygon points="1138.5 687.1 1138.2 687.4 1138.7 687.4 1138.5 687.1" fill="#ffb3b7"/><polygon points="1139.5 686.1 1139.5 687.4 1140.7 687.4 1140.7 685 1139.5 686.1" fill="#ffb3b7"/><polygon points="1138.5 687.1 1138.7 687.4 1139.5 687.4 1139.5 686.1 1138.5 687.1" fill="#ffb3b7"/><rect x="912.7" y="458.9" width="1" height="228.47" fill="#ffecc0"/><rect x="912.7" y="458.4" width="1" height="0.53" fill="#ffb3b7"/><polygon points="1141.7 684 1366.7 458.9 1141.7 458.9 1141.7 684" fill="#ffb3b7"/><polygon points="1366.7 458.9 1366.7 687.4 1369.7 687.4 1369.7 458.4 1366.1 458.4 1366.7 458.9" fill="#ffb3b7"/><polygon points="1141.7 458.9 1366.7 458.9 1366.1 458.4 1141.7 458.4 1141.7 458.9" fill="#ffb3b7"/><polygon points="1141.7 684 1141.7 687.4 1366.7 687.4 1366.7 458.9 1141.7 684" fill="url(#linear-gradient-20)"/><polygon points="1140.7 458.9 1140.7 685 1141.7 684 1141.7 458.9 1140.7 458.9" fill="#ffb3b7"/><rect x="1140.7" y="458.4" width="1" height="0.53" fill="#ffb3b7"/><polygon points="1140.7 687.4 1141.7 687.4 1141.7 684 1140.7 685 1140.7 687.4" fill="#ffb3b7"/><polyline points="113.5 686.2 113.5 799.7 0 799.7" fill="url(#linear-gradient-21)"/><polyline points="0 799.7 0 686.2 113.5 686.2" fill="#b09dda"/><polyline points="113.8 686.2 227.3 686.2 227.3 799.7" fill="url(#linear-gradient-22)"/><polyline points="227.3 799.7 113.8 799.7 113.8 686.2" fill="#b6e5ef"/><polyline points="341.2 686.2 341.2 799.7 227.7 799.7" fill="url(#linear-gradient-23)"/><polyline points="227.7 799.7 227.7 686.2 341.2 686.2" fill="#b6e5ef"/><polyline points="455 686.2 455 799.7 341.5 799.7" fill="#b6e5ef"/><polyline points="341.5 799.7 341.5 686.2 455 686.2" fill="url(#linear-gradient-24)"/><polyline points="455.3 686.2 568.8 686.2 568.8 799.7" fill="url(#linear-gradient-25)"/><polyline points="568.8 799.7 455.3 799.7 455.3 686.2" fill="#b09dda"/><polyline points="682.7 686.2 682.7 799.7 569.2 799.7" fill="url(#linear-gradient-26)"/><polyline points="569.2 799.7 569.2 686.2 682.7 686.2" fill="#b6e5ef"/><polyline points="683 686.2 796.5 686.2 796.5 799.7" fill="url(#linear-gradient-27)"/><polyline points="796.5 799.7 683 799.7 683 686.2" fill="#b09dda"/><polyline points="910.3 686.2 910.3 799.7 796.8 799.7" fill="url(#linear-gradient-28)"/><polyline points="796.8 799.7 796.8 686.2 910.3 686.2" fill="#b6e5ef"/><polyline points="1024.2 686.2 1024.2 799.7 910.7 799.7" fill="url(#linear-gradient-29)"/><polyline points="910.7 799.7 910.7 686.2 1024.2 686.2" fill="#b09dda"/><polyline points="1024.5 686.2 1138 686.2 1138 799.7" fill="url(#linear-gradient-30)"/><polyline points="1138 799.7 1024.5 799.7 1024.5 686.2" fill="#b6e5ef"/><polyline points="1251.8 686.2 1251.8 799.7 1138.3 799.7" fill="url(#linear-gradient-31)"/><polyline points="1138.3 799.7 1138.3 686.2 1251.8 686.2" fill="#b09dda"/><polyline points="1365.7 686.2 1365.7 799.7 1252.2 799.7" fill="url(#linear-gradient-32)"/><polyline points="1252.2 799.7 1252.2 686.2 1365.7 686.2" fill="#b6e5ef"/></svg>