<svg height=".7in" viewBox="0 0 66.2 48.7" width=".9in" xmlns="http://www.w3.org/2000/svg"><g fill="#fff"><path d="m33.4 0h18.2c8.7.2 14.4 5.8 14.5 14.6.1 12.3.1 6.9 0 19.2-.1 8.6-5.5 14.5-14.1 14.7q-18.9.4-37.8 0c-8.5-.2-14.1-6.1-14.1-14.6-.1-12.4-.1-6.9 0-19.2 0-9 5.8-14.6 14.8-14.7zm-27.5 15.3c0 6.1-.1 12.1 0 18.1s3 9.3 9.1 9.4h36.2c6-.1 9.1-3.1 9.1-9 .1-12.3.1-6.8 0-19.2 0-5.8-3.2-9-9.1-9h-36.2c-5.9 0-9.1 3.2-9.1 9s0-5.4 0 .7z"/><path d="m6.5 10 26.6 20.6 27.6-21.9 2.8 4.3-30.4 24.8-29.9-23.7-1.1-4.5z"/></g></svg>