<svg height=".9in" viewBox="0 0 66.2 66.5" width=".9in" xmlns="http://www.w3.org/2000/svg"><g fill="#fff"><path d="m33.4 0h18.2c8.7.2 14.4 5.8 14.5 14.6.1 12.3.1 24.7 0 37-.1 8.6-5.5 14.5-14.1 14.7q-18.9.5-37.8 0c-8.5-.2-14.1-6.1-14.1-14.6-.1-12.4-.1-24.7 0-37 0-9 5.8-14.6 14.8-14.7zm-27.5 33.1c0 6.1-.1 12.1 0 18.1s3 9.3 9.1 9.4h36.2c6-.1 9.1-3.1 9.1-9 .1-12.3.1-24.6 0-37 0-5.8-3.2-9-9.1-9h-36.2c-5.9 0-9.1 3.2-9.1 9s0 12.4 0 18.5z"/><path d="m16 32.9a17.1 17.1 0 1 1 16.8 17.5 17.1 17.1 0 0 1 -16.8-17.5zm17-11.2a11.4 11.4 0 0 0 -11.5 11.4 11.9 11.9 0 0 0 11.5 11.7 11.9 11.9 0 0 0 11.7-11.8 11.5 11.5 0 0 0 -11.7-11.3z"/><circle cx="51" cy="14.8" r="2.7"/></g></svg>