<svg height="1.1in" viewBox="0 0 50.2 78.4" width=".7in" xmlns="http://www.w3.org/2000/svg"><g fill="#fff"><path d="m35.6.1c8.7.1 14.4 5.8 14.5 14.5.1 12.4.1 36.6 0 49-.1 8.5-5.5 14.5-14.1 14.6-12.6.3-9.2.2-21.8 0-8.5-.2-14.1-6.1-14.1-14.6-.1-12.4-.1-36.6 0-49 0-8.9 5.8-14.5 14.8-14.6zm-29.7 44.9c0 6-.1 12.1 0 18.1s3 9.3 9.1 9.3c12.1.1 8.1.2 20.2.1 6 0 9.1-3 9.1-8.9.1-12.4.1-36.6 0-48.9 0-5.8-3.2-9-9.1-9-12.1-.1-8.1-.2-20.2-.1-5.9 0-9.1 3.2-9.1 9s0 24.2 0 30.4z"/><circle cx="25.1" cy="64.8" r="3.5"/></g></svg>